REM Ripping Tool: trurip

FILE "Psychic Detective Series Vol. 4 - Orgel (1993)(Data West)(JP).img" BINARY
  TRACK 01 AUDIO
    INDEX 01 00:00:00
  TRACK 02 MODE1/2352
    INDEX 00 00:44:66
    INDEX 01 00:47:65
  TRACK 03 AUDIO
    INDEX 00 07:56:00
    INDEX 01 07:58:00
  TRACK 04 AUDIO
    INDEX 01 12:48:29
  TRACK 05 AUDIO
    INDEX 01 13:22:21
  TRACK 06 AUDIO
    INDEX 01 16:17:40
  TRACK 07 AUDIO
    INDEX 01 18:20:67
  TRACK 08 AUDIO
    INDEX 01 20:47:66

REM DISC HASHES
REM CRC32 : d117acab
REM MD5   : 620c077385237131ddc44053754bbc48
REM SHA1  : 721cb03c0f2735342eea46f359aafc0f362b1eb4

REM Gap Append Method: Prev [crc32]
REM Trk 01: c32ebb5f
REM Trk 02: d5903a2f
REM Trk 03: e6193d05
REM Trk 04: c2758622
REM Trk 05: 6d0625b3
REM Trk 06: 9842fde8
REM Trk 07: f99365aa
REM Trk 08: 0981db7e

REM Gap Append Method: Prev [md5]
REM Trk 01: d2920d23b2c65cf3960457c2fd544f18
REM Trk 02: 4ccbeb6555a4f3c9623e427ed87d164a
REM Trk 03: 3db44cdff3eeef73c53ad09960690ebe
REM Trk 04: be82898925f8a95fa46880487662d923
REM Trk 05: 4593da64c38cc4da5ce8c1251e426737
REM Trk 06: cd2a30d93847d9ae92fbad84f7811838
REM Trk 07: 5dae725aaac25c676a567c63d6e3be98
REM Trk 08: cdbba7abb930e023b7fcdd3def512753

REM Gap Append Method: Prev [sha1]
REM Trk 01: 36735c876010ac491567126c9bb719af5ed75889
REM Trk 02: 9ca232760e8a6edb4dea0326b31507f39a519151
REM Trk 03: f839d73b8a21cd46295195ada5786369c937561e
REM Trk 04: 64bbc5859c9aaf34a2885c2a3a02c1292e86d2cf
REM Trk 05: a484abde83b2b3f7c084d261bee712723128726e
REM Trk 06: bdd771ace86fbf73abf2c3858fd45f21acad61f1
REM Trk 07: 60c6ebc6966d43e8a1bd653d5c07664c17b2423c
REM Trk 08: c8565acc771e7cf0d9f53fc3154a92d1404a377e

REM Gap Append Method: None [crc32]
REM Trk 01: 8f2aa8ba
REM Trk 02: affcc41b
REM Trk 03: e6193d05
REM Trk 04: c2758622
REM Trk 05: 6d0625b3
REM Trk 06: 9842fde8
REM Trk 07: f99365aa
REM Trk 08: 0981db7e
REM Gap 02: eacd1466
REM Gap 03: 7abe247f

REM Gap Append Method: None [md5]
REM Trk 01: 7020f1c3fc3dc9a8f8465702dbc1d104
REM Trk 02: 56f11effda9f417083f2178a59ea92ef
REM Trk 03: 3db44cdff3eeef73c53ad09960690ebe
REM Trk 04: be82898925f8a95fa46880487662d923
REM Trk 05: 4593da64c38cc4da5ce8c1251e426737
REM Trk 06: cd2a30d93847d9ae92fbad84f7811838
REM Trk 07: 5dae725aaac25c676a567c63d6e3be98
REM Trk 08: cdbba7abb930e023b7fcdd3def512753
REM Gap 02: 878bf0e0b9f1b8bc0330bfe39eb227c9
REM Gap 03: 9df204fbc98bb8965081cb30a89715fc

REM Gap Append Method: None [sha1]
REM Trk 01: 53468813421e7677adf04f3208a3d52167f342bc
REM Trk 02: 6ec77933006c09e60a5a9ce09154c9c4021e0f2c
REM Trk 03: f839d73b8a21cd46295195ada5786369c937561e
REM Trk 04: 64bbc5859c9aaf34a2885c2a3a02c1292e86d2cf
REM Trk 05: a484abde83b2b3f7c084d261bee712723128726e
REM Trk 06: bdd771ace86fbf73abf2c3858fd45f21acad61f1
REM Trk 07: 60c6ebc6966d43e8a1bd653d5c07664c17b2423c
REM Trk 08: c8565acc771e7cf0d9f53fc3154a92d1404a377e
REM Gap 02: fb2028173c340a0b16ab201d9314c7ae2a171ffe
REM Gap 03: cbe29e0bd725ef1194f8c47619dd42078e841de2

REM Gap Append Method: Next [crc32]
REM Trk 01: 8f2aa8ba
REM Trk 02: 19fb24db
REM Trk 03: 9785d8d2
REM Trk 04: c2758622
REM Trk 05: 6d0625b3
REM Trk 06: 9842fde8
REM Trk 07: f99365aa
REM Trk 08: 0981db7e

REM Gap Append Method: Next [md5]
REM Trk 01: 7020f1c3fc3dc9a8f8465702dbc1d104
REM Trk 02: d16378dc479fee411adf237121a82d00
REM Trk 03: 49cf668f4ddba36b8000630f007e408b
REM Trk 04: be82898925f8a95fa46880487662d923
REM Trk 05: 4593da64c38cc4da5ce8c1251e426737
REM Trk 06: cd2a30d93847d9ae92fbad84f7811838
REM Trk 07: 5dae725aaac25c676a567c63d6e3be98
REM Trk 08: cdbba7abb930e023b7fcdd3def512753

REM Gap Append Method: Next [sha1]
REM Trk 01: 53468813421e7677adf04f3208a3d52167f342bc
REM Trk 02: 38eec1e2934c99380275ba58568a2c6b361873ee
REM Trk 03: d1f477abe4aaca3899582fbc83c2c91cd872a73b
REM Trk 04: 64bbc5859c9aaf34a2885c2a3a02c1292e86d2cf
REM Trk 05: a484abde83b2b3f7c084d261bee712723128726e
REM Trk 06: bdd771ace86fbf73abf2c3858fd45f21acad61f1
REM Trk 07: 60c6ebc6966d43e8a1bd653d5c07664c17b2423c
REM Trk 08: c8565acc771e7cf0d9f53fc3154a92d1404a377e

